<svg width="26" height="29" viewBox="0 0 26 29" fill="none" xmlns="http://www.w3.org/2000/svg">
<path d="M16.3825 25.641L16.4063 25.6523C16.6773 25.928 16.7011 26.3475 16.4604 26.6497L16.4532 26.6587L16.4464 26.6681C15.7395 27.6448 14.6028 28.2672 13.3525 28.3496L13.3403 28.3504L13.3282 28.3518C12.0202 28.5024 10.7054 28.1522 9.66889 27.3816L9.65796 27.3735L9.64661 27.366C9.18857 27.0627 8.89436 26.5915 8.82728 26.0756C8.83416 25.9191 8.90567 25.7995 9.05525 25.6872C9.22787 25.5575 9.4826 25.4594 9.76861 25.3962C10.487 25.2504 11.2194 25.1765 11.9538 25.1759H14.4487C15.1214 25.196 15.781 25.3549 16.3825 25.641ZM22.2549 10.9025L22.2575 10.9334L22.2638 10.9637C22.543 12.3005 23.182 13.5414 24.1146 14.5635C24.599 15.2691 24.8796 16.083 24.9299 16.9231L24.9299 17.2038L24.9299 17.207C24.9372 18.358 24.5114 19.476 23.7257 20.355C22.7065 21.4038 21.3219 22.0662 19.8268 22.214L19.8268 22.2139L19.8145 22.2154C15.0886 22.8009 10.3038 22.8009 5.57784 22.2154L5.5696 22.2144L5.56134 22.2136C4.05037 22.0772 2.6478 21.4153 1.6165 20.3584C0.859261 19.4733 0.46508 18.3582 0.502431 17.2202L0.502701 17.212V17.2038V16.9227C0.551364 16.0849 0.823136 15.2717 1.29369 14.5608C2.22773 13.5397 2.87395 12.303 3.16755 10.969L3.17479 10.9361L3.17755 10.9025C3.21939 10.3941 3.21939 9.88585 3.21938 9.40116V9.39149C3.21938 8.89923 3.21966 8.43083 3.25732 7.96896C3.73479 3.606 8.13711 0.5 12.636 0.5H12.7698C17.2202 0.5 21.7112 3.61015 22.1752 7.96857C22.2128 8.42399 22.2131 8.89225 22.2131 9.38667V9.39644C22.2131 9.88264 22.2131 10.3941 22.2549 10.9025Z" stroke="black"/>
</svg>
