<svg width="29" height="29" viewBox="0 0 29 29" fill="none" xmlns="http://www.w3.org/2000/svg">
<path d="M20.7464 0H2.11347C0.948169 0 0 0.944924 0 2.10668V26.8795C0 28.0448 0.948169 28.9929 2.11347 28.9929H20.7464C21.9117 28.9929 22.8599 28.0448 22.8599 26.8795V18.8128L28.3654 13.3071C29.2115 12.4613 29.2115 11.0851 28.3654 10.2393L26.8827 8.75626C26.0366 7.91016 24.6607 7.91016 23.8146 8.75626L22.8599 9.71096V2.10668C22.8599 0.944924 21.9117 0 20.7464 0ZM17.7968 22.1671L14.9548 19.3251L22.6198 11.6598L25.4619 14.5019L17.7968 22.1671ZM14.4545 20.5335L16.5882 22.6672L13.8573 23.2644L14.4545 20.5335ZM21.6515 26.8795C21.6515 27.3786 21.2456 27.7845 20.7464 27.7845H2.11347C1.61431 27.7845 1.20837 27.3786 1.20837 26.8795V2.10668C1.20837 1.61136 1.61431 1.20837 2.11347 1.20837H20.7464C21.2456 1.20837 21.6515 1.61136 21.6515 2.10668V10.9194L16.7675 15.8035H4.66296C4.32901 15.8035 4.05878 16.074 4.05878 16.4077C4.05878 16.7414 4.32901 17.0119 4.66296 17.0119H15.5592L13.6732 18.8979C13.6219 18.949 13.5848 19.0106 13.5551 19.0758C13.5462 19.0951 13.54 19.1142 13.5334 19.1343C13.5263 19.1552 13.515 19.1744 13.5104 19.1962L13.416 19.6278H4.66296C4.32901 19.6278 4.05878 19.8983 4.05878 20.2319C4.05878 20.5656 4.32901 20.8361 4.66296 20.8361H13.1518L12.58 23.4517H4.66296C4.32901 23.4517 4.05878 23.7222 4.05878 24.0559C4.05878 24.3895 4.32901 24.6601 4.66296 24.6601H13.0661C13.1092 24.6601 13.1522 24.6556 13.1953 24.6462L17.9261 23.6119C17.9481 23.6071 17.9676 23.5956 17.9889 23.5884C18.0085 23.5818 18.0272 23.5756 18.0462 23.5669C18.1115 23.5371 18.1731 23.4999 18.2241 23.4488L21.6515 20.0212V26.8795ZM24.6689 9.61061C25.0442 9.23595 25.6531 9.23595 26.0283 9.61061L27.5111 11.0936C27.8857 11.4683 27.8857 12.0781 27.5111 12.4528L26.3163 13.6476L23.4741 10.8054L24.6689 9.61061Z" fill="black"/>
</svg>
