<svg width="18" height="28" viewBox="0 0 18 28" fill="none" xmlns="http://www.w3.org/2000/svg">
<path d="M9.26634 22.805L9 22.6374L8.73366 22.805L1.69744 27.2338C1.25233 27.4119 0.80571 27.2954 0.574493 26.8955C0.531092 26.7989 0.517169 26.7438 0.510241 26.6989C0.501101 26.6395 0.5 26.5755 0.5 26.4273V4.17273C0.5 2.04657 1.98387 0.5 3.85714 0.5H14.1429C16.0161 0.5 17.5 2.04657 17.5 4.17273V26.4273C17.5 26.7422 17.4042 26.9611 17.2793 27.0963C17.1576 27.2279 16.974 27.3182 16.7143 27.3182C16.5751 27.3182 16.5257 27.3167 16.4816 27.3087C16.452 27.3034 16.4091 27.2921 16.3228 27.2465L9.26634 22.805Z" stroke="black"/>
</svg>
